<?xml version="1.0" encoding="UTF-8"?>
<svg data-bbox="0 0 246.669 236.901" xmlns="http://www.w3.org/2000/svg" width="512" viewBox="0 0 246.666 236.901" height="512" data-type="shape">
    <g>
        <path d="M83.345 96.764h-9.426a184 184 0 0 0 3.961 6.463 51.6 51.6 0 0 1 5.465-6.463"/>
        <path d="m46.753 97.406-.03-.062a13 13 0 0 1-.288-.581H34.823c.419 3.233 2.795 6.015 6.16 6.778.168.023 4.387 1 10.186 1.837a312 312 0 0 1-4.388-7.926z"/>
        <path d="M96.287 73.31v10.707h3.486a26.3 26.3 0 0 1-2.941-12.108c0-8.666 4.182-16.373 10.634-21.21h-3.451c-.496 0-.979.051-1.45.141a7.95 7.95 0 0 0-4.647.617c-.684.319-5.968 2.827-11.76 9.088-4.742 5.103-9.735 12.828-12.525 23.473H90.37c1.661-4.568 3.799-8.044 5.917-10.708"/>
        <path d="m199.941 97.344-.095.177c-.73 1.366-2.307 4.28-4.352 7.857 5.799-.837 10.018-1.813 10.188-1.837 3.364-.764 5.74-3.545 6.159-6.778H200.23q-.137.294-.289.581"/>
        <path d="M172.745 96.764h-9.426a51.4 51.4 0 0 1 5.465 6.461 219 219 0 0 0 3.961-6.461"/>
        <path d="M149.834 71.909c0 4.361-1.065 8.476-2.94 12.108h3.485V73.309c2.116 2.671 4.255 6.143 5.916 10.708h16.734c-2.79-10.646-7.783-18.371-12.523-23.473-5.793-6.261-11.078-8.769-11.76-9.088a7.97 7.97 0 0 0-4.647-.618 8 8 0 0 0-1.448-.14h-3.45c6.451 4.838 10.633 12.545 10.633 21.211"/>
        <path d="M86.533 223.321c-.671 6.797 4.295 12.848 11.088 13.519 6.796.671 12.85-4.291 13.521-11.088l3.161-32.012H89.454z"/>
        <path d="M135.524 225.751c.671 6.797 6.725 11.759 13.521 11.088 6.793-.671 11.759-6.722 11.088-13.519l-2.921-29.582h-24.849z"/>
        <path d="M145.833 22.5c0 12.426-10.074 22.5-22.5 22.5s-22.5-10.074-22.5-22.5S110.907 0 123.333 0s22.5 10.074 22.5 22.5"/>
        <path d="M127.084 177.498a16 16 0 0 1-3.751-.996 16 16 0 0 1-3.756.996l-33.128 4.629-1.03 7.612h75.824l-1.03-7.612z"/>
        <path d="M7.375 103.389a1.3 1.3 0 0 0 1.3 1.3h3.9c.136 0 .26-.039.383-.078v5.778a2 2 0 0 0 2 2h6a2 2 0 0 0 2-2V92.764h26.448c.119.922.393 1.839.853 2.711.051.093 4.278 8.112 9.383 16.326 2.564 4.119 5.317 8.268 8.081 11.696 1.401 1.722 2.776 3.267 4.419 4.667.834.699 1.737 1.375 2.929 2 1.188.599 2.737 1.231 4.911 1.252l.183.002c1.991 0 4.424-.873 5.994-2.307 1.656-1.458 2.465-3.076 2.958-4.425 2.055-5.708 4.636-9.681 7.171-12.514v39.723l.004.08-25.987 3.63c-5.423.759-9.71 5.064-10.442 10.489l-7.669 56.667c-.908 6.705 3.793 12.875 10.499 13.783q.836.112 1.657.112c6.035 0 11.293-4.463 12.123-10.608l6.421-47.462 36.135-5.048a12.2 12.2 0 0 0 4.306-1.462 12.2 12.2 0 0 0 4.306 1.462l36.132 5.048 6.422 47.462c.832 6.145 6.089 10.609 12.124 10.609q.821 0 1.657-.112c6.705-.907 11.404-7.078 10.499-13.783l-7.668-56.665c-.734-5.426-5.022-9.733-10.443-10.49l-25.986-3.63.004-.082v-39.718c2.534 2.833 5.116 6.798 7.169 12.502.487 1.351 1.294 2.968 2.949 4.426 1.569 1.437 4.005 2.312 5.998 2.312q.094 0 .185-.003c2.176-.019 3.723-.651 4.911-1.252 2.199-1.179 3.553-2.492 4.954-3.922 2.375-2.501 4.593-5.517 6.825-8.796 6.608-9.772 12.96-21.841 13.035-21.97.46-.871.733-1.788.852-2.711h26.452v17.625a2 2 0 0 0 2 2h6a2 2 0 0 0 2-2v-5.777c.123.038.247.077.383.077h3.9a1.3 1.3 0 0 0 1.3-1.3V92.764h7.374v-4.75h-7.374V77.389a1.3 1.3 0 0 0-1.3-1.3h-3.9c-.136 0-.26.039-.383.078v-5.778a2 2 0 0 0-2-2h-6a2 2 0 0 0-2 2v17.625h-27.301a7.95 7.95 0 0 0-3.342-3.347 7.996 7.996 0 0 0-10.808 3.336l-.006.011H142.04c-4.533 5.258-11.235 8.597-18.706 8.597-7.47 0-14.171-3.339-18.704-8.597H64.413l-.005-.01a7.999 7.999 0 0 0-14.152.011H22.958V70.389a2 2 0 0 0-2-2h-6a2 2 0 0 0-2 2v5.777a1.3 1.3 0 0 0-.383-.077h-3.9a1.3 1.3 0 0 0-1.3 1.3v10.625H0v4.75h7.375zm172.278-10.625c-2.027 3.624-4.996 8.765-8.016 13.415a114 114 0 0 1-2.955 4.361c-3.936-7.084-8.735-11.971-13.038-15.123a40 40 0 0 0-4.096-2.654zm-84.539 0a41 41 0 0 0-4.094 2.655c-4.305 3.15-9.105 8.037-13.04 15.123-2.461-3.453-5.256-7.898-7.561-11.835a311 311 0 0 1-3.409-5.942z"/>
        <path d="M145.833 71.91c0 12.426-10.074 22.5-22.5 22.5s-22.5-10.074-22.5-22.5 10.074-22.5 22.5-22.5 22.5 10.074 22.5 22.5"/>
    </g>
</svg>
