<?xml version="1.0" encoding="UTF-8"?>
<svg data-bbox="7 5.992 498 500.016" xmlns="http://www.w3.org/2000/svg" viewBox="0 0 512 512" data-type="shape">
    <g>
        <path fill-rule="evenodd" d="M154.657 58.329c0-28.826 23.511-52.337 52.337-52.337s52.338 23.511 52.338 52.337-23.511 52.337-52.338 52.337-52.337-23.511-52.337-52.337m-35.625 246.552c5.028 0 9.776-1.257 13.948-3.471V195.438a8 8 0 0 1 16 0v84.929h122.597v-82.175c0-8.591 7.006-15.597 15.597-15.597h67.383c16.471 0 29.947-13.476 29.947-29.948s-13.477-29.948-29.947-29.948H158.338c-38.09 0-69.253 31.164-69.253 69.254v82.98c0 16.471 13.476 29.947 29.947 29.947zm121.895 178.128c16.857 0 30.65-13.792 30.65-30.649V295.743H148.98v156.618c0 16.856 13.792 30.648 30.649 30.648 8.948 0 17.033-3.887 22.65-10.055V354.936a8 8 0 0 1 16 0v118.018c5.616 6.168 13.701 10.055 22.649 10.055zM505 218.987v195.138c0 10.734-8.782 19.517-19.517 19.517h-68.219c.1.506.155 1.029.155 1.564v62.802a8 8 0 0 1-8 8H15a8 8 0 0 1-8-8V13.992a8 8 0 0 1 16 0v47.293h18.401a8 8 0 0 1 0 16H23v36.493h18.401a8 8 0 0 1 0 16H23v36.493h18.401a8 8 0 0 1 0 16H23v36.493h18.401a8 8 0 0 1 0 16H23v36.493h18.401a8 8 0 0 1 0 16H23v36.493h18.401a8 8 0 0 1 0 16H23v36.493h18.401a8 8 0 0 1 0 16H23v36.493h18.401a8 8 0 0 1 0 16H23v45.276h378.42V435.21c0-.536.055-1.058.155-1.564h-68.219c-10.735 0-19.517-8.783-19.517-19.517V218.991c0-10.734 8.782-19.517 19.517-19.517h152.127c10.735 0 19.517 8.782 19.517 19.517zM371.555 383.544c0-2.754-2.246-5-5-5h-16.101a5.01 5.01 0 0 0-5 5v16.101c0 2.754 2.246 5 5 5h16.101c2.754 0 5-2.246 5-5zm0-42c0-2.754-2.246-5-5-5h-16.101a5.01 5.01 0 0 0-5 5v16.101c0 2.754 2.246 5 5 5h16.101c2.754 0 5-2.246 5-5zm0-42c0-2.754-2.246-5-5-5h-16.101a5.01 5.01 0 0 0-5 5v16.101c0 2.754 2.246 5 5 5h16.101c2.754 0 5-2.246 5-5zm50.915 84c0-2.754-2.246-5-5-5h-16.101a5.01 5.01 0 0 0-5 5v16.101c0 2.754 2.246 5 5 5h16.101c2.754 0 5-2.246 5-5zm0-42c0-2.754-2.246-5-5-5h-16.101a5.01 5.01 0 0 0-5 5v16.101c0 2.754 2.246 5 5 5h16.101c2.754 0 5-2.246 5-5zm0-42c0-2.754-2.246-5-5-5h-16.101a5.01 5.01 0 0 0-5 5v16.101c0 2.754 2.246 5 5 5h16.101c2.754 0 5-2.246 5-5zm50.915 84c0-2.754-2.246-5-5-5h-16.101a5.01 5.01 0 0 0-5 5v16.101c0 2.754 2.246 5 5 5h16.101c2.754 0 5-2.246 5-5zm0-42c0-2.754-2.246-5-5-5h-16.101a5.01 5.01 0 0 0-5 5v16.101c0 2.754 2.246 5 5 5h16.101c2.754 0 5-2.246 5-5zm0-42c0-2.754-2.246-5-5-5h-16.101a5.01 5.01 0 0 0-5 5v16.101c0 2.754 2.246 5 5 5h16.101c2.754 0 5-2.246 5-5zm0-67.969a3.116 3.116 0 0 0-3.107-3.107H348.563a3.116 3.116 0 0 0-3.107 3.107v43.392a3.115 3.115 0 0 0 3.107 3.107h121.715a3.116 3.116 0 0 0 3.107-3.107z"/>
    </g>
</svg>
