<?xml version="1.0" encoding="UTF-8"?>
<svg data-bbox="16.36 16.001 479.28 479.999" xmlns="http://www.w3.org/2000/svg" viewBox="0 0 512 512" data-type="shape">
    <g>
        <path d="M116.107 277.643c-5.186 0-10.235.59-15.083 1.704V146.473c0-15.612 12.773-28.385 28.385-28.385h168.874v14.843c0 3.07.393 6.05 1.13 8.893H128.697a3.95 3.95 0 0 0-3.937 3.937v132.437a67.5 67.5 0 0 0-8.653-.555m0 118.181c28.216 0 51.091-22.875 51.091-51.091s-22.875-51.091-51.091-51.091-51.091 22.875-51.091 51.091 22.875 51.091 51.091 51.091M217.475 292.23c-.298 1.518.063 2.944 1.046 4.139s2.313 1.823 3.861 1.823H348.9c1.547 0 2.878-.629 3.861-1.823.982-1.194 1.344-2.621 1.046-4.139-6.26-31.935-34.398-56.031-68.167-56.031s-61.907 24.096-68.165 56.031m68.166-136.278c-19.398 0-35.123 15.726-35.123 35.124s15.725 35.123 35.123 35.123 35.124-15.726 35.124-35.123c0-19.398-15.725-35.124-35.124-35.124m160.88 166.369H179.356a67 67 0 0 1 3.841 22.412c0 8.99-1.773 17.566-4.983 25.402h49.404v45.098h-38.712c13.082 10.389 23.932 23.545 31.616 38.682h190.554v-19.341c0-10.637-10.893-19.341-24.207-19.341h-43.207v-45.098h98.209c15.612 0 28.385-12.773 28.385-28.385V168.38H446.52v153.941zM495.64 35.45v97.481c0 10.713-8.737 19.45-19.45 19.45h-87.938l-29.455 30.662c-1.443 1.502-3.541 1.952-5.473 1.175-1.933-.778-3.133-2.555-3.133-4.638v-27.198h-16.458c-10.713 0-19.45-8.737-19.45-19.45V35.451c0-10.713 8.737-19.45 19.45-19.45H476.19c10.712-.001 19.45 8.736 19.45 19.449m-31.636 79.939a8 8 0 0 0-8-8H352.183a8 8 0 0 0 0 16h103.822a8 8 0 0 0 7.999-8m0-30.865a8 8 0 0 0-8-8H352.183a8 8 0 0 0 0 16h103.822a8 8 0 0 0 7.999-8m0-30.864a8 8 0 0 0-8-8H352.183a8 8 0 0 0 0 16h103.822a8 8 0 0 0 7.999-8M116.107 405.824c-50.122 0-91.715 36.492-99.673 84.356-.25 1.5.134 2.891 1.118 4.052S19.845 496 21.367 496l189.479-.001c1.521 0 2.831-.606 3.814-1.767s1.368-2.552 1.118-4.053c-7.957-47.863-49.551-84.355-99.671-84.355"/>
    </g>
</svg>
