<?xml version="1.0" encoding="UTF-8"?>
<svg data-bbox="2 2 44 44" xmlns="http://www.w3.org/2000/svg" width="512" viewBox="0 0 48 48" height="512" data-type="shape">
    <g>
        <path d="M46 24c0-12.15-9.85-22-22-22S2 11.85 2 24c0 4.05 1.09 7.85 3 11.1V33c0-1.12.37-2.15.98-2.98C5.34 28.13 5 26.1 5 24 5 13.51 13.51 5 24 5s19 8.51 19 19c0 2.1-.34 4.13-.98 6.02.61.83.98 1.86.98 2.98v2.1c1.91-3.25 3-7.05 3-11.1"/>
        <path d="M38 24c0-.55.45-1 1-1h1.95c-.14-2.37-.77-4.59-1.78-6.6l-.81.47c-.48.27-1.09.11-1.37-.37s-.11-1.09.37-1.37l.81-.47a17.1 17.1 0 0 0-4.83-4.83l-.47.81c-.28.48-.89.65-1.37.37s-.64-.89-.37-1.37l.47-.81A16.9 16.9 0 0 0 25 7.05V9c0 .55-.45 1-1 1s-1-.45-1-1V7.05c-2.37.14-4.59.77-6.6 1.78l.47.81c.27.48.11 1.09-.37 1.37s-1.09.11-1.37-.37l-.47-.81a17.1 17.1 0 0 0-4.83 4.83l.81.47c.48.28.65.89.37 1.37s-.89.64-1.37.37l-.81-.47A16.9 16.9 0 0 0 7.05 23H9c.55 0 1 .45 1 1s-.45 1-1 1H7.05c.07 1.24.28 2.43.6 3.58.7-.37 1.5-.58 2.35-.58h28c.85 0 1.65.21 2.35.58.32-1.15.53-2.34.6-3.58H39c-.55 0-1-.45-1-1m-14 2c-.74 0-1.38-.4-1.72-1H16c-.55 0-1-.45-1-1s.45-1 1-1h6.28c.17-.3.42-.55.72-.72V14c0-.55.45-1 1-1s1 .45 1 1v8.28c.6.34 1 .98 1 1.72 0 1.1-.9 2-2 2"/>
        <path d="M38 30H10a3 3 0 0 0-3 3v10a3 3 0 0 0 3 3h28a3 3 0 0 0 3-3V33a3 3 0 0 0-3-3m-22 7c0 1.103-.897 2-2 2h-2v2h3a1 1 0 0 1 0 2h-3c-1.103 0-2-.897-2-2v-2c0-1.103.897-2 2-2h2v-2h-3a1 1 0 0 1 0-2h3c1.103 0 2 .897 2 2zm8 5a1 1 0 0 1-2 0v-3h-2c-1.103 0-2-.897-2-2v-3a1 1 0 0 1 2 0v3h2v-3a1 1 0 0 1 2 0zm3.98 1.196a1 1 0 0 1-1.176.784 1 1 0 0 1-.784-1.177l2-10a1 1 0 0 1 1.177-.784 1 1 0 0 1 .784 1.177l-2 10zm9.449-7.494-2.493 6.649a1 1 0 0 1-1.288.585 1 1 0 0 1-.585-1.288l2.493-6.649h-2.557a1 1 0 0 1 0-2h2.557a2 2 0 0 1 1.873 2.702z"/>
    </g>
</svg>
