<?xml version="1.0" encoding="UTF-8"?>
<svg data-bbox="0 26.5 512.001 459" xmlns="http://www.w3.org/2000/svg" width="512" viewBox="0 0 512 512" height="512" data-type="shape">
    <g>
        <path d="M250.911 138.67c7.63 12.4 12.58 26.43 14.35 41.02l66.46-80.17c10.88-13.13 25.76-22.26 42.15-26.16-14.74-27.99-44.1-46.86-77.87-46.86-25.132.136-45.441 6.265-63.5 18.99 11.69 14.26 19.15 31.25 21.76 49.67 2.09 14.79.93 29.54-3.35 43.51"/>
        <path d="M18.85 212.5h144.721l-30.5-30.79H77.34c-8.12 0-14.7-6.58-14.7-14.7s6.58-14.7 14.7-14.7h26.33l-49.4-49.41c-5.74-5.74-5.74-15.05.01-20.79 5.74-5.74 15.05-5.74 20.79 0l49.39 49.4v-26.33c0-8.12 6.58-14.7 14.7-14.7s14.71 6.58 14.71 14.7v55.74l52.38 51.58h26.73c7.21-23.92 1.4-50.69-16.29-69.44 14.75-27.16 10.33-61.36-12.3-83.99-22.64-22.65-56.81-27.07-83.96-12.31-26.925-26.247-71.115-26.489-98.2-.59C8.16 59.48.27 77.47.01 96.8c-.27 18.97 6.84 36.83 20 50.38-11.11 20.44-11.36 44.85-1.16 65.32"/>
        <path d="m354.822 118.66-77.79 93.84h169.051l1.41-1.17a48.22 48.22 0 0 0 17.34-34.79c.558-11.954-3.407-23.675-10.953-32.836 18.999-6.547 37.516-1.254 38.715-.896 7.893 2.421 16.266-1.987 18.723-9.878 2.464-7.909-1.951-16.318-9.86-18.782-1.311-.408-21.077-6.349-44.583-2.125 4.224-23.508-1.716-43.275-2.125-44.587-2.463-7.909-10.882-12.362-18.793-9.898-7.909 2.463-12.336 10.835-9.873 18.745.313 1.045 5.644 19.506-.815 38.515-9.511-9.187-22.445-14.104-35.676-13.487-13.491.639-26.162 6.959-34.771 17.349"/>
        <path d="M496.992 242.499H15c-8.28 0-15 6.157-15 13.733 0 59.881 25.49 116.167 71.76 158.509 4.09 3.742 8.29 7.328 12.61 10.759h343.251c4.32-3.431 8.52-7.017 12.61-10.759 46.27-42.342 71.76-98.628 71.76-158.518.001-7.576-6.719-13.724-14.999-13.724"/>
        <path d="M440.996 455.5H70.998c-8.28 0-15 6.72-15 15s6.72 15 15 15h369.999c8.28 0 15-6.72 15-15-.001-8.28-6.721-15-15.001-15"/>
    </g>
</svg>
